<mxfile host="app.diagrams.net" modified="2023-12-01T07:51:21.427Z" agent="Mozilla/5.0 (Macintosh; Intel Mac OS X 10_15_7) AppleWebKit/537.36 (KHTML, like Gecko) Chrome/119.0.0.0 Safari/537.36" etag="YCeWJSJq0FbYB10k7zks" version="22.1.5" type="github">
  <diagram name="第 1 页" id="5Em02w5hrnFbwzc_Gry1">
    <mxGraphModel dx="1434" dy="736" grid="1" gridSize="10" guides="1" tooltips="1" connect="1" arrows="1" fold="1" page="1" pageScale="1" pageWidth="827" pageHeight="1169" math="0" shadow="0">
      <root>
        <mxCell id="0" />
        <mxCell id="1" parent="0" />
        <mxCell id="vPt4sRwPXSmuFZmviOyl-1" value="Server A&lt;br&gt;(public ip x.x.x.x)" style="rounded=1;whiteSpace=wrap;html=1;verticalAlign=top;" vertex="1" parent="1">
          <mxGeometry x="340" y="300" width="216" height="100" as="geometry" />
        </mxCell>
        <mxCell id="vPt4sRwPXSmuFZmviOyl-2" value="Internal network" style="sketch=0;outlineConnect=0;gradientColor=none;html=1;whiteSpace=wrap;fontSize=12;fontStyle=0;shape=mxgraph.aws4.group;grIcon=mxgraph.aws4.group_region;strokeColor=#879196;fillColor=none;verticalAlign=top;align=left;spacingLeft=30;fontColor=#879196;dashed=1;" vertex="1" parent="1">
          <mxGeometry x="164" y="60" width="526" height="190" as="geometry" />
        </mxCell>
        <mxCell id="vPt4sRwPXSmuFZmviOyl-3" value="Server 1" style="rounded=1;whiteSpace=wrap;html=1;verticalAlign=top;" vertex="1" parent="1">
          <mxGeometry x="200" y="110" width="120" height="60" as="geometry" />
        </mxCell>
        <mxCell id="vPt4sRwPXSmuFZmviOyl-4" value="Server 2" style="rounded=1;whiteSpace=wrap;html=1;verticalAlign=top;" vertex="1" parent="1">
          <mxGeometry x="370" y="110" width="120" height="60" as="geometry" />
        </mxCell>
        <mxCell id="vPt4sRwPXSmuFZmviOyl-5" value="Server N" style="rounded=1;whiteSpace=wrap;html=1;verticalAlign=top;" vertex="1" parent="1">
          <mxGeometry x="540" y="110" width="120" height="60" as="geometry" />
        </mxCell>
        <mxCell id="vPt4sRwPXSmuFZmviOyl-6" value="Actor" style="shape=umlActor;verticalLabelPosition=bottom;verticalAlign=top;html=1;outlineConnect=0;" vertex="1" parent="1">
          <mxGeometry x="430" y="525" width="30" height="60" as="geometry" />
        </mxCell>
        <mxCell id="vPt4sRwPXSmuFZmviOyl-7" value="OpenRPS" style="rounded=0;whiteSpace=wrap;html=1;" vertex="1" parent="1">
          <mxGeometry x="390" y="350" width="120" height="30" as="geometry" />
        </mxCell>
        <mxCell id="vPt4sRwPXSmuFZmviOyl-8" value="OpenRPC" style="rounded=0;whiteSpace=wrap;html=1;" vertex="1" parent="1">
          <mxGeometry x="210" y="140" width="100" height="20" as="geometry" />
        </mxCell>
        <mxCell id="vPt4sRwPXSmuFZmviOyl-11" value="22" style="fontStyle=0;labelPosition=right;verticalLabelPosition=middle;align=left;verticalAlign=middle;spacingLeft=2;" vertex="1" parent="1">
          <mxGeometry x="380" y="390" width="30" height="30" as="geometry" />
        </mxCell>
      </root>
    </mxGraphModel>
  </diagram>
</mxfile>
